<svg version="1.2" xmlns="http://www.w3.org/2000/svg" viewBox="0 0 730 730" width="1000" height="1000">
	<title>DALL·E 2024-10-28 14</title>
	<style>
		.s0 { fill: #1b1e1f } 
		.s1 { fill: #f8c714 } 
		.s2 { fill: #f3f3eb } 
	</style>
	<g id="Background">
		<path id="Path 6" class="s0" d="m361.1 19.7c-2.5 2.2-4.6 5.3-5.2 7.3-0.5 1.9-0.9 15.4-0.9 30 0 24.7 0.1 26.7 2 29.8 1.1 1.7 3.5 4.1 5.2 5.2 1.8 1.1 4.7 2 6.3 2 1.6 0 4.6-1 6.5-2.3 1.9-1.2 4.1-3.4 4.7-4.7 0.9-1.8 1.3-10.6 1.3-31.8 0-26-0.2-29.5-1.8-32.2-0.9-1.6-2.8-3.6-4.2-4.4-1.4-0.8-4.1-1.7-6.1-2.1-3.3-0.6-4.1-0.3-7.8 3.2zm-183.1 67.9c-1.4 0.8-3.7 3.3-5.2 5.7-1.5 2.3-2.8 5.3-2.8 6.7 0 1.4 0.9 4.3 1.9 6.5 1.2 2.7 8.5 10.4 21.6 23l19.8 19c10.1 0 12.3-0.5 14.4-2.1 1.5-1.1 3.4-3.8 4.1-6 0.8-2.3 1-5.4 0.7-7.4-0.6-2.7-2.7-5.3-9.9-12-5-4.6-15-14.4-22.1-21.7-11.8-12-13.3-13.2-16.5-13.2-1.9 0-4.6 0.6-6 1.5zm366.2 4.3c-1.8 1.1-6.1 5.4-9.5 9.6-3.4 4.2-11 12-16.9 17.3-5.9 5.4-11.2 10.7-11.8 11.9-0.5 1.3-1 3.9-1 5.8 0 1.9 0.7 4.8 1.5 6.5 0.8 1.7 2.5 3.7 3.7 4.5 1.3 0.8 4.1 1.5 6.3 1.5 2.2-0.1 5-0.6 6.1-1.3 1.2-0.7 10.3-9.1 20.3-18.7 10-9.6 19-18.8 20.1-20.5 1.1-1.7 2-4.5 2-6.3 0-2.1-0.9-4.3-2.8-6.3-1.5-1.8-3.9-3.8-5.5-4.5-1.5-0.8-4.2-1.4-6-1.4-1.7 0-4.7 0.9-6.5 1.9zm-194.2 35.7c-6.9 0.9-18.6 3.1-26 5-7.4 1.9-18.2 5.4-24 7.7-5.8 2.4-15.7 7.2-22 10.7-6.3 3.6-15.1 9.1-19.5 12.4-4.4 3.3-10.6 8.2-13.8 11-3.2 2.8-9.2 8.9-13.4 13.6-4.1 4.7-10.6 12.8-14.3 18-3.8 5.2-9.9 15.4-13.6 22.5-3.7 7.1-8 16.6-9.5 21-1.5 4.4-3.8 13.2-5.2 19.5-1.4 6.3-3.1 16.2-3.7 22-0.8 6.7-1 17.4-0.7 29.5 0.5 15.1 1.1 21.2 3 30 1.4 6.1 4.2 15.7 6.2 21.5 2 5.8 5.9 15.2 8.7 21 2.7 5.8 7.5 14.1 10.5 18.5 3.1 4.4 7.9 10.7 10.7 14 2.7 3.3 10.2 11.4 16.6 18 6.4 6.6 13.2 14 15.2 16.5 2 2.5 5.4 7.9 7.7 12 2.5 4.6 5.1 11.9 7 19 2.2 8.6 3.2 15.8 4.1 28.5 0.7 9.4 2 20.4 3 24.5 1.2 5.1 1.5 8.8 1 11.5-0.4 2.2-1.3 6-2 8.5-0.7 2.8-1 9.4-0.8 17.5 0.3 11.4 0.6 13.7 2.8 18.3 2 4.3 2.3 5.5 1.2 6.5-0.7 0.6-2 3.4-2.9 6.2-1.2 3.8-1.4 7.1-1 14 0.5 7.5 1.2 10.2 4.2 16.2 1.9 4 5.4 9.4 7.7 12 2.4 2.5 6.3 5.9 8.8 7.5 2.5 1.5 6.8 3.4 9.7 4.1 5.1 1.2 5.2 1.2 5.8 5.7 0.4 2.5 1.5 6.5 2.4 9 0.9 2.5 3.5 7.2 5.8 10.5 2.2 3.3 6.4 7.9 9.4 10.1 3 2.3 6.7 4.9 8.4 5.7 1.6 0.8 7.3 2.7 12.5 4.2 8.7 2.5 10.6 2.7 22.5 2.3 11.4-0.5 14.2-0.9 23-3.9 9.4-3.1 10.4-3.8 17.8-10.9 5.8-5.5 8.8-9.3 11.3-14.5 2.6-5.3 3.4-8.3 3.4-12.3 0-5.1 0.1-5.2 3.2-5.8 1.8-0.4 5.5-1.8 8.3-3.2 2.7-1.4 7.4-4.8 10.4-7.6 2.9-2.8 6.4-7.2 7.7-9.9 1.3-2.6 3.1-7.7 4-11.5 1.1-4.8 1.4-9 1-14.7-0.4-4.4-1-9.4-1.5-11-0.5-1.8-0.5-5 0.1-8 0.6-2.8 1.1-17.1 1.2-32 0.1-14.9 0.7-35.5 1.4-46 0.9-14.8 1.8-21.5 4-30.5 1.6-6.3 4.4-14.4 6.2-18 1.8-3.6 4.8-9 6.7-12 1.9-3 8.6-10.7 14.8-17 6.2-6.3 14.1-15.1 17.7-19.5 3.5-4.4 8.9-11.6 12-16 3-4.4 7-10.9 8.8-14.5 1.8-3.6 5.6-12.6 8.5-20 2.9-7.4 6-16.2 6.8-19.5 0.9-3.3 2.2-9.8 3.1-14.5 0.8-4.7 2-13.4 2.6-19.5 0.7-6.1 0.9-14.8 0.5-19.5-0.3-4.7-1.7-14.9-3.1-22.8-1.3-7.8-4-19.3-6-25.5-2-6.1-5.9-15.7-8.6-21.2-2.8-5.5-8.5-15-12.7-21.2-4.2-6.1-11.4-15.5-16.1-20.8-4.7-5.4-12.5-13.3-17.5-17.7-5-4.4-14-11.3-20-15.3-6-4-15.5-9.5-21-12.3-5.5-2.7-13.4-6.2-17.5-7.6-4.1-1.5-12.5-4-18.5-5.6-6-1.5-14.4-3.3-18.5-3.9-4.1-0.5-13.4-1.2-20.5-1.5-8.3-0.3-17.5 0.1-25.5 1zm-264.1 163.7c-1.9 1.2-4.3 3.8-5.3 5.7-1.5 2.7-1.7 4.4-1.1 7.5 0.5 2.6 1.9 5.1 4.1 7.3l3.4 3.2c49.9 0 55.6-0.3 58-1.5 1.6-0.8 3.7-2.9 4.5-4.5 0.8-1.6 1.5-4.8 1.5-7 0-2.9-0.7-4.8-2.7-7.1-1.6-1.8-4-3.8-5.5-4.5-2.2-1.1-8.7-1.4-28.1-1.4-24.7 0-25.4 0.1-28.8 2.3zm509.8 0.2c-1.7 1.1-3.7 3.3-4.3 4.9-0.6 1.5-0.9 4.9-0.6 7.4 0.3 3.7 1.2 5.4 3.8 8l3.4 3.2c47.8 0 53.7-0.3 56.5-1.5 1.9-0.8 4.1-2.5 4.9-3.7 0.8-1.3 1.7-3.9 2.1-5.8 0.5-2.7 0.1-4.3-1.7-7-1.3-1.9-3.9-4.2-5.8-5.2-2.9-1.3-7.9-1.7-29.3-2-24.8-0.4-25.9-0.4-29 1.7zm-24.7 123.2c-0.8 0.2-2.6 1-3.8 1.6-1.3 0.7-3.2 2.6-4.3 4.2-1 1.6-1.9 4.7-1.9 6.8 0 2 0.5 4.7 1.1 6 0.6 1.2 7.4 8.5 15.2 16.3 7.8 7.7 16.4 16.6 19.2 19.7 4.9 5.6 5.1 5.7 10.5 5.7 3.3 0 6.4-0.6 7.7-1.5 1.3-0.8 3-2.9 3.8-4.5 0.8-1.6 1.5-4.7 1.5-6.7 0.1-3-0.9-5.2-4.3-9.8-2.5-3.3-11.2-12.6-19.3-20.7-9.2-9-16.3-15.3-18.7-16.3-2-0.8-4-1.5-4.5-1.4-0.4 0-1.4 0.3-2.2 0.6zm-413.8 1.3c-1.3 0.4-5.6 4.6-9.5 9.1-4 4.6-11.8 13.2-17.5 19.1-5.6 5.9-10.6 11.9-11.2 13.3-0.6 1.4-1 3.6-1 5 0 1.4 0.8 4.1 1.7 6.1 1 2 3 4.3 4.5 5 1.6 0.8 4.2 1.4 5.8 1.4 1.6 0 3.9-0.5 5-1 1.1-0.5 10.7-9.8 21.2-20.5 10.6-10.8 19.7-20.6 20.1-21.8 0.4-1.2 0.6-3.8 0.2-5.7-0.3-1.9-1.5-4.6-2.8-5.9-1.2-1.4-3.7-3.1-5.5-3.8-1.7-0.7-4.4-1.3-6-1.2-1.5 0-3.7 0.4-5 0.9z"/>
		<path id="Path 9" fill-rule="evenodd" class="s1" d="m371 149.7c15.6 0.1 21.4 0.6 29 2.3 5.2 1.1 14.5 3.7 20.5 5.7 6 1.9 15.7 6 21.5 8.9 5.8 2.9 14.3 8 19 11.2 4.7 3.3 12.8 9.7 18 14.4 5.2 4.6 12 11.3 15.1 14.9 3.1 3.5 8.2 10 11.3 14.4 3.1 4.4 7.7 11.8 10.1 16.5 2.4 4.7 6.2 13.9 8.4 20.5 2.2 6.6 4.7 16.1 5.6 21 0.8 4.9 1.8 15.8 2.1 24 0.4 9.3 0.2 18.6-0.5 24.5-0.7 5.2-1.9 12.9-2.7 17-0.9 4.1-2.9 11.6-4.6 16.5-1.6 4.9-5.4 13.9-8.5 20-3 6.1-6.9 13.3-8.6 16-1.7 2.8-5.8 8.4-9.1 12.5-3.3 4.1-11 12.7-17.1 19-6.1 6.3-12.7 13.5-14.7 16-2 2.5-5.5 7.6-7.8 11.5-2.4 3.9-5.5 10.1-7.1 14-1.5 3.9-3.9 11.5-5.3 17-1.3 5.5-3 15.6-3.6 22.5-0.6 6.9-1.2 17-1.5 32.5l-38 0.6 0.8-7.3c0.4-4 0.8-28.2 0.8-53.8 0-36.4 0.3-48.4 1.5-55 0.8-4.7 2.4-11.6 3.5-15.5 1.2-3.9 5.1-13.1 8.8-20.5 3.7-7.4 12.3-21.8 19.1-32 6.8-10.2 13.9-21.6 15.7-25.5 2.7-5.6 3.5-8.7 4-15.5 0.5-7.2 0.2-9.6-1.7-15.5-1.2-3.9-3.5-8.8-5-11-1.5-2.2-4.5-5.4-6.6-7.1-2.2-1.7-4.9-3.6-6.2-4.2-1.2-0.7-2.2-0.9-2.2-0.4 0.1 0.4-0.7 0-1.6-0.8-1.2-1.1-4-1.5-9.8-1.5-4.7 0-10.4 0.7-13.6 1.7-3 0.9-7.9 3.5-10.8 5.7-3.4 2.7-4.9 4.5-4.5 5.3 0.5 0.8 0.4 1-0.2 0.6-0.5-0.4-2.6 1.6-4.5 4.4-1.9 2.8-3.5 5.7-3.5 6.4 0 0.8-0.3 1.4-0.8 1.4-0.4 0-0.7 0.4-0.7 1 0 0.6-1.1 2.7-2.5 4.8-1.4 2-2.5 3.4-2.5 3 0-0.5-1.4-0.1-3 0.7-1.9 0.9-5.2 1.4-8.9 1.3-3.2-0.2-5.7-0.6-5.5-1 0.2-0.5-0.6-1-1.9-1.3-1.6-0.4-3.5-3.1-7-9.8-2.6-5-6.1-10.7-7.7-12.4-1.9-2.1-3.5-3-4.2-2.5q-1.3 0.7-0.5-0.5c0.4-0.8-0.5-2.2-2.6-3.7-1.7-1.3-5.2-3.1-7.7-3.9-3.1-1-7.8-1.4-15-1.2-6.7 0.1-11.8 0.7-14 1.7-1.9 0.8-5.6 3.8-8.3 6.7-2.6 2.8-4.7 5.8-4.7 6.6 0 0.8-0.3 1.5-0.7 1.5-0.5 0-1.8 3-3.1 6.7-1.9 5.6-2.3 8.6-2.1 16.8 0.2 7.2 0.8 11.5 2.3 15.5 1.2 3 3.7 8.2 5.7 11.5 1.9 3.3 5.4 8.5 7.8 11.5 2.4 3 7.1 10.2 10.6 16 3.4 5.8 8.2 14.3 10.5 19 2.4 4.7 5.8 12.4 7.6 17.3 1.9 4.8 4.3 12.4 5.4 17 1.9 7.7 2 11.7 2 118.2l-12.3-0.3c-6.7-0.1-14.4-0.5-17.2-0.7-2.9-0.3-5.7-1.2-6.7-2.2-1.5-1.5-1.9-5.1-2.7-22.3-0.7-13.9-1.7-23.1-3-28.5-1.1-4.4-3-10.9-4.4-14.5-1.3-3.6-3.7-9-5.2-12-1.5-3-4.8-8.6-7.4-12.5-2.5-3.9-11.1-13.7-19.1-22-8-8.2-16.5-17.5-18.9-20.5-2.4-3-5.9-7.9-7.7-10.7-1.9-2.9-4.7-7.9-6.3-11-1.6-3.2-4.2-9.2-5.9-13.3-1.6-4.1-3.9-11.3-5.1-16-1.2-4.7-2.6-9.9-3.1-11.5-0.5-1.6-1-4.7-1-6.7 0-2.1-0.5-5-1.1-6.5-0.6-1.6-1-10.9-1-21.8 0-10.4 0.5-22.1 1.1-26 0.6-3.9 2-10.1 3-14 1-3.9 3.5-11.5 5.5-17 2-5.5 5.2-12.9 7.2-16.5 2-3.6 6.3-10.6 9.7-15.5 3.7-5.6 11-14 19.1-22 7.2-7.3 17.6-16.4 23.5-20.7 5.8-4.2 15-9.8 20.5-12.6 5.5-2.8 15.4-6.8 22-9 6.6-2.3 15.4-4.8 19.5-5.6 4.1-0.9 8.9-1.7 10.5-1.8 1.6-0.2 11.8-0.2 22.5-0.1zm50.6 151.9c1.6 0.1 4.1 0.8 5.6 1.6 1.6 0.7 2.5 1.6 2.1 2-0.3 0.5-0.1 0.8 0.5 0.8 0.7 0 1.9 1.7 2.8 3.7 1.2 2.8 1.4 5.1 0.9 8.3-0.4 2.5-1.6 6.3-2.7 8.5-1.1 2.2-5 8.3-8.6 13.5-3.6 5.2-8 11.6-9.9 14.2-1.8 2.7-7.7 13.7-13.1 24.5q-9.8 19.8-12.6 29.8c-1.6 5.5-3.4 13.1-5.2 24l-10.9-0.2c-6.1-0.1-11.3-0.2-11.8-0.2-0.4-0.1-1-1.8-1.3-3.9-0.3-2-1.6-7.3-2.9-11.7-1.3-4.4-3.3-10.5-4.5-13.5-1.2-3-4.7-11.4-7.8-18.5-3-7.1-6.3-14.1-7.2-15.5-0.9-1.4-2.2-3.9-3-5.5-0.8-1.6-1.7-3.2-2-3.5-0.3-0.3-1.1-1.4-1.7-2.5-0.7-1.1-1.9-3.4-2.6-5-0.8-1.6-3.1-4.9-5.1-7.3-2-2.3-3.6-4.8-3.6-5.5 0-0.6-0.9-1.9-2-2.7-1.1-0.8-2-1.9-2-2.5 0-0.6-1.1-2.4-2.5-4-1.3-1.6-2.1-3.3-1.8-3.8 0.4-0.4 0.1-0.7-0.5-0.7-0.7 0-1.2-0.9-1.2-2 0-1.1-0.4-2-1-2-0.6 0-1.1-2.5-1.2-5.5-0.2-3 0-5.6 0.4-5.8 0.3-0.1 0.8-1.1 1-2.2 0.1-1.1 1.5-3 3.1-4.2 1.8-1.6 4-2.3 7-2.3 2.9-0.1 5.1 0.6 7.1 2.2 1.6 1.3 4 4.5 5.5 7.1 1.4 2.6 2.9 4.7 3.4 4.7 0.4 0 0.5 0.4 0.2 1-0.3 0.6 2.5 4.1 6.3 7.8 3.7 3.7 8.1 7.7 9.7 8.7 1.6 1.1 4.1 2.5 5.5 3.1 1.4 0.6 4.1 1.6 6 2.2 1.9 0.6 6.2 0.9 9.5 0.7 3.3-0.1 8.9-1.3 12.5-2.5 3.6-1.2 8.3-3.2 10.5-4.5 2.2-1.3 5.6-4.1 7.5-6.2 2-2.1 5.4-7.2 7.6-11.3 2.3-4.1 5.7-8.9 7.6-10.6 2.4-2.1 4.3-3 6.4-2.8zm-63.6 154.4h23v37.2c0 20.5-0.3 40.2-1.2 50.3l-11.2-0.5c-10.7-0.5-11.1-0.6-11.1-2.8 0-1.2 0.1-20.7 0.3-43.2zm73.7 112.1c1.9-0.1 3.9 0.6 4.9 1.7 0.9 0.9 2 2.7 2.5 4 0.5 1.2 0.9 5.2 0.9 9 0 4.8-0.5 7.4-1.8 9.1-1 1.4-3.2 3.1-5 3.8-2.6 1-16.2 1.3-124.8 1.3l-4.7-3c-3-1.9-5.3-4.3-6.3-6.5-0.8-1.9-1.5-5.3-1.5-7.5 0-2.9 0.8-4.8 5.5-10.3l60.5 0.2c34.8 0.1 61.8-0.3 63.5-0.8 1.7-0.5 4.5-1 6.3-1zm-127.9 50.5c1.5 0.4 31.8 0.7 132.3 0.9l2 2.5c1.2 1.6 1.9 4 1.9 6.5 0 2.2-1 5.5-2.1 7.3-1.1 1.7-3.7 4.3-6 5.7-2.2 1.4-5.9 3-8.2 3.6-2.8 0.7-22.1 0.9-109.3 0.4l-6.5-3.6c-5.1-2.8-6.9-4.4-8.8-8-1.6-3.2-2.1-5.4-1.7-7.9 0.3-1.9 1.3-4.6 2.2-5.8 1.3-1.9 2.1-2.2 4.2-1.6zm65.9 51.2c18.5 0.2 33.9 0.5 34 0.5 0.2 0.1-0.3 1.8-1 3.7-0.8 1.9-3 5.3-4.9 7.5-2.1 2.4-6.1 5.2-10 6.9-4.4 2-8.5 3.1-13.4 3.4-4.3 0.3-9.9-0.2-14.7-1.2-4.3-0.9-9-2.2-10.5-3-1.5-0.8-4.6-3.4-7-5.8-2.3-2.4-4.8-5.9-5.7-7.8-0.8-1.9-1.3-3.7-1.1-4.1 0.3-0.3 15.7-0.3 34.3-0.1z"/>
		<path id="Path 10" class="s2" d="m364.4 172.8c-1.5 1.5-3.2 3.9-4 5.4-1.3 2.6-1.2 3.2 1.4 7.9 1.5 2.8 3.5 5.5 4.5 6 0.9 0.5 2.9 0.7 4.5 0.4 1.5-0.3 4.4-1.9 6.5-3.5 2.8-2.3 3.7-3.7 3.7-6 0-1.7-0.6-4.2-1.4-5.8-0.7-1.5-3-3.7-5-5-2-1.2-4.5-2.2-5.6-2.2-1.2 0-3.2 1.2-4.6 2.7zm-39.9 9.3c-3.9 1-11.3 4.1-16.5 7-5.2 2.8-12.3 6.8-15.8 8.8-3.4 2-6.5 4.1-7 4.7-0.4 0.5-2.9 2.8-5.6 5-2.8 2.2-6.3 5.8-7.8 8-1.6 2.2-2.9 4.9-2.8 6 0 1.1 1.3 3.9 3 6.2 2.8 4 3.3 4.3 7.5 4.3 2.5 0 4.7-0.5 5-1 0.3-0.6 1.3-1 2.3-1 0.9 0 4.2-2.1 7.2-4.6 3-2.6 7.8-6.4 10.5-8.4 2.8-2 7.9-5.2 11.4-7.1 3.5-1.9 7.3-4 8.5-4.6 1.2-0.7 3.2-1.3 4.6-1.3 1.4-0.1 4.5-1.1 7-2.3 3-1.5 5.2-3.5 6.7-6.2 1.3-2.2 2.3-4.8 2.3-5.8 0-0.9-1.7-3.5-3.7-5.7-2.9-3.2-4.5-4.1-6.8-4-1.6 0.1-6.1 1-10 2zm-77.7 68c-2.1 2.2-5 6.6-6.4 9.7-1.4 3.2-2.6 7.2-2.7 8.9-0.1 2 0.8 4.4 2.6 6.7 1.5 2 3.9 4 5.5 4.4 2 0.4 4.2-0.2 8.2-2.3 4.4-2.3 6-3.9 8.1-7.9 1.4-2.8 3.1-6.7 3.7-8.8 1-2.9 0.9-4.3-0.2-6.5-0.7-1.5-2.7-3.9-4.5-5.5-2.2-1.9-4.2-2.7-6.8-2.7-2.9 0-4.3 0.8-7.5 4zm-12.6 52.8c-1.8 0.9-3.6 2.7-3.9 4-0.3 1.2-0.2 4.4 0.2 7 0.5 3.2 1.6 5.6 3.6 7.4 2 2 3.9 2.8 6.4 2.8 1.9 0 4.9-0.7 6.5-1.5 1.7-0.8 3.7-2.5 4.5-3.8 0.8-1.2 1.5-3.9 1.5-6 0-2-0.4-4.6-1-5.7-0.5-1.1-2.9-2.9-5.2-4-2.4-1.1-5.4-1.9-6.8-1.9-1.4 0-4 0.8-5.8 1.7z"/>
	</g>
</svg>