<?xml version="1.0" encoding="UTF-8" standalone="no"?>
<svg xmlns="http://www.w3.org/2000/svg" xmlns:xlink="http://www.w3.org/1999/xlink" contentScriptType="application/ecmascript" contentStyleType="text/css" height="226px" preserveAspectRatio="none" style="width:274px;height:226px;" version="1.1" viewBox="0 0 274 226" width="274px" zoomAndPan="magnify"><defs><filter height="300%" id="f9lbg2lwz5sdc" width="300%" x="-1" y="-1"><feGaussianBlur result="blurOut" stdDeviation="2.0"/><feColorMatrix in="blurOut" result="blurOut2" type="matrix" values="0 0 0 0 0 0 0 0 0 0 0 0 0 0 0 0 0 0 .4 0"/><feOffset dx="4.0" dy="4.0" in="blurOut2" result="blurOut3"/><feBlend in="SourceGraphic" in2="blurOut3" mode="normal"/></filter></defs><g><rect fill="#FEFECE" filter="url(#f9lbg2lwz5sdc)" height="207.2969" rx="12.5" ry="12.5" style="stroke: #A80036; stroke-width: 1.5;" width="256" x="6" y="8"/><rect fill="#FFFFFF" height="175" rx="12.5" ry="12.5" style="stroke: #FFFFFF; stroke-width: 1.0;" width="250" x="9" y="37.2969"/><line style="stroke: #A80036; stroke-width: 1.5;" x1="6" x2="262" y1="34.2969" y2="34.2969"/><text fill="#000000" font-family="sans-serif" font-size="14" lengthAdjust="spacingAndGlyphs" textLength="55" x="106.5" y="25.9951">Elevator</text><rect fill="#FEFECE" filter="url(#f9lbg2lwz5sdc)" height="50" rx="12.5" ry="12.5" style="stroke: #A80036; stroke-width: 1.5;" width="79" x="22.825" y="47.2969"/><line style="stroke: #A80036; stroke-width: 1.5;" x1="22.825" x2="101.825" y1="73.5938" y2="73.5938"/><text fill="#000000" font-family="sans-serif" font-size="14" lengthAdjust="spacingAndGlyphs" textLength="59" x="32.825" y="65.292">Stopped</text><rect fill="#FEFECE" filter="url(#f9lbg2lwz5sdc)" height="50" rx="12.5" ry="12.5" style="stroke: #A80036; stroke-width: 1.5;" width="69" x="27.825" y="150.2969"/><line style="stroke: #A80036; stroke-width: 1.5;" x1="27.825" x2="96.825" y1="176.5938" y2="176.5938"/><text fill="#000000" font-family="sans-serif" font-size="14" lengthAdjust="spacingAndGlyphs" textLength="49" x="37.825" y="168.292">Moving</text><!--link Stopped to Moving--><path d="M31.2709,97.3999 C26.404,102.7281 22.0791,108.757 19.325,115.2969 C14.7624,126.1313 19.1503,136.8596 26.6019,146.1365 " fill="none" id="Stopped-Moving" style="stroke: #A80036; stroke-width: 1.0;"/><polygon fill="#A80036" points="29.9659,150.0195,27.0961,140.598,26.692,146.2404,21.0496,145.8363,29.9659,150.0195" style="stroke: #A80036; stroke-width: 1.0;"/><text fill="#000000" font-family="sans-serif" font-size="13" lengthAdjust="spacingAndGlyphs" textLength="64" x="20.325" y="128.3638">Next Stop</text><!--link Moving to Stopped--><path d="M79.16,150.0471 C84.4979,139.5534 88.3228,127.0127 85.325,115.2969 C84.1748,110.8018 82.4328,106.2704 80.4119,101.9322 " fill="none" id="Moving-Stopped" style="stroke: #A80036; stroke-width: 1.0;"/><polygon fill="#A80036" points="78.1243,97.3119,78.5327,107.1523,80.3427,101.7928,85.7022,103.6028,78.1243,97.3119" style="stroke: #A80036; stroke-width: 1.0;"/><text fill="#000000" font-family="sans-serif" font-size="13" lengthAdjust="spacingAndGlyphs" textLength="95" x="87.325" y="128.3638">No More Stops</text><!--link Moving to Moving--><path d="M96.9112,165.9499 C107.0058,166.273 114.825,169.3887 114.825,175.2969 C114.825,180.0973 109.6631,183.0542 102.3129,184.1676 " fill="none" id="Moving-Moving" style="stroke: #A80036; stroke-width: 1.0;"/><polygon fill="#A80036" points="96.9112,184.6439,106.2278,187.8377,101.8919,184.2046,105.525,179.8686,96.9112,184.6439" style="stroke: #A80036; stroke-width: 1.0;"/><text fill="#000000" font-family="sans-serif" font-size="13" lengthAdjust="spacingAndGlyphs" textLength="102" x="120.825" y="179.8638">Has More Stops</text><!--
@startuml
state Elevator {
  Stopped -right-> Moving : Next Stop
  Moving - -> Stopped : No More Stops
  Moving - -> Moving : Has More Stops
}
@enduml

PlantUML version 1.2019.01(Sat Feb 09 15:32:04 UTC 2019)
(GPL source distribution)
Java Runtime: Java(TM) SE Runtime Environment
JVM: Java HotSpot(TM) 64-Bit Server VM
Java Version: 1.7.0_25-b15
Operating System: Linux
Default Encoding: UTF-8
Language: en
Country: US
--></g></svg>